<?xml version="1.0" encoding="UTF-8" standalone="no"?>
<svg
   xmlns:dc="http://purl.org/dc/elements/1.1/"
   xmlns:cc="http://creativecommons.org/ns#"
   xmlns:rdf="http://www.w3.org/1999/02/22-rdf-syntax-ns#"
   xmlns:svg="http://www.w3.org/2000/svg"
   xmlns="http://www.w3.org/2000/svg"
   viewBox="0 0 1440 1440"
   height="1440"
   width="1440"
   xml:space="preserve"
   id="svg2"
   version="1.1"><metadata
     id="metadata8"><rdf:RDF><cc:Work
         rdf:about=""><dc:format>image/svg+xml</dc:format><dc:type
           rdf:resource="http://purl.org/dc/dcmitype/StillImage" /></cc:Work></rdf:RDF></metadata><defs
     id="defs6"><clipPath
       id="clipPath20"
       clipPathUnits="userSpaceOnUse"><path
         id="path18"
         d="M 0,1080 H 1080 V 0 H 0 Z" /></clipPath></defs><g
     transform="matrix(1.3333333,0,0,-1.3333333,0,1440)"
     id="g10"><path
       id="path12"
       style="fill:#553e2d;fill-opacity:1;fill-rule:nonzero;stroke:none"
       d="M 0,0 H 1080 V 1080 H 0 Z" /><g
       id="g14"><g
         clip-path="url(#clipPath20)"
         id="g16"><g
           transform="translate(247.1914,355.5771)"
           id="g22"><path
             id="path24"
             style="fill:#ffd9b0;fill-opacity:1;fill-rule:nonzero;stroke:none"
             d="m 0,0 h 9.779 c 9.723,0 14.045,3.766 14.045,11.784 0,7.778 -4.183,10.954 -12.684,10.954 H 0 v 4.871 h 14.587 c 14.416,0 21.136,-6.316 21.136,-14.951 0,-7.152 -4.693,-13.356 -18.56,-14.996 v 0.845 c 15.649,-1.117 21.934,-7.346 21.934,-15.939 0,-8.2 -6.388,-17.253 -26.996,-17.253 H 0 v 4.872 h 10.605 c 10.416,0 15.883,4.359 15.883,12.451 0,8.629 -5.073,12.698 -16.29,12.698 L 0,-4.664 Z m -6.087,-1.707 c 0,9.741 0,19.576 -0.281,29.316 H 6.23 C 5.949,18.057 5.949,8.222 5.949,-1.707 v -2.77 c 0,-10.667 0,-20.466 0.281,-30.208 H -6.368 c 0.281,9.553 0.281,19.354 0.281,29.283 z M 0,-28.865 v -5.82 h -14.146 v 4.412 l 12.931,1.408 z m -14.146,52.064 v 4.41 H 0 V 21.79 h -1.215 z" /></g><g
           transform="translate(323.5186,354.0557)"
           id="g26"><path
             id="path28"
             style="fill:#ffd9b0;fill-opacity:1;fill-rule:nonzero;stroke:none"
             d="M 0,0 1.408,9.471 H 6.254 V -11.75 H 1.408 L 0,-1.81 Z m 17.703,-16.725 -0.657,-16.438 h -35.057 v 4.971 h 31.839 l -5.535,-4.971 2.842,16.438 z M 2.936,-3.656 H -18.01 V 1.283 H 2.936 Z m 3.479,32.787 5.535,-5.005 h -29.961 v 5.005 H 15.168 L 15.825,12.692 H 9.257 Z M -24.098,0.021 c 0,9.672 0,19.438 -0.281,29.11 h 12.737 c -0.282,-9.484 -0.282,-19.25 -0.282,-29.11 v -3.327 c 0,-10.42 0,-20.185 0.282,-29.857 h -12.737 c 0.281,9.484 0.281,19.25 0.281,29.109 z m 6.087,-27.365 v -5.819 h -14.145 v 4.411 l 12.93,1.408 z m -14.145,52.065 v 4.41 h 14.145 v -5.819 h -1.215 z" /></g><g
           transform="translate(378.5244,325.2002)"
           id="g30"><path
             id="path32"
             style="fill:#ffd9b0;fill-opacity:1;fill-rule:nonzero;stroke:none"
             d="m 0,0 11.211,1.408 h 4.118 L 27.18,0 V -4.308 H 0 Z M -17.12,19.818 H 8.233 l 1.813,-4.905 H -18.657 Z M -6.582,58.284 H 1.12 L 22.477,-4.308 H 10.021 l -17.426,53.284 2.848,2.413 -18.536,-55.697 h -4.999 z m -27.328,-58.18 9.528,1.408 h 1.775 l 9.605,-1.408 V -4.308 H -33.91 Z" /></g><g
           transform="translate(456.2754,330.0166)"
           id="g34"><path
             id="path36"
             style="fill:#ffd9b0;fill-opacity:1;fill-rule:nonzero;stroke:none"
             d="M 0,0 V -4.992 L -6.063,-6.342 -3.302,7.97 H 3.149 L 2.774,-6.06 c -5.467,-2.986 -12.016,-4.645 -19.347,-4.645 -18.521,0 -32.188,12.159 -32.188,32.728 0,20.539 14.507,32.728 32.473,32.728 6.104,0 12.289,-1.224 18.261,-4.576 L 2.349,36.076 h -6.453 l -2.794,14.381 6.062,-1.384 v -5.452 c -4.904,4.494 -9.404,6.125 -13.773,6.125 -11.333,0 -20.845,-8.998 -20.845,-27.758 0,-18.724 8.823,-27.653 20.29,-27.653 5.008,0 10.294,1.769 15.164,5.665" /></g><g
           transform="translate(511.7842,354.0771)"
           id="g38"><path
             id="path40"
             style="fill:#ffd9b0;fill-opacity:1;fill-rule:nonzero;stroke:none"
             d="M 0,0 C 0,9.672 0,19.437 -0.281,29.109 H 12.456 C 12.174,19.626 12.174,9.859 12.174,0 v -4.075 c 0,-9.672 0,-19.438 0.282,-29.11 H -0.281 C 0,-23.7 0,-13.935 0,-2.852 Z m 7.302,-27.365 12.862,-1.408 v -4.412 H -7.817 v 4.412 l 12.862,1.408 z M -7.817,24.699 v 4.41 h 27.981 v -4.41 L 7.302,23.29 H 5.045 Z M -31.49,1.218 H 6.087 V -3.687 H -31.49 Z M -37.577,0 c 0,9.672 0,19.437 -0.282,29.109 h 12.737 C -25.403,19.626 -25.403,9.859 -25.403,0 v -2.852 c 0,-10.895 0,-20.661 0.281,-30.333 h -12.737 c 0.282,9.485 0.282,19.25 0.282,29.11 z m 7.025,-27.365 12.966,-1.408 v -4.412 h -27.981 v 4.412 l 12.689,1.408 z m -15.015,52.064 v 4.41 h 27.981 v -4.41 L -30.552,23.29 h -2.326 z" /></g><g
           transform="translate(591.8203,334.6357)"
           id="g42"><path
             id="path44"
             style="fill:#ffd9b0;fill-opacity:1;fill-rule:nonzero;stroke:none"
             d="m 0,0 c 0,5.518 -3.042,8 -9.937,10.848 l -3.774,1.615 c -10.337,4.411 -16.807,9.927 -16.807,19.918 0,11.04 9.109,17.751 22.206,17.751 6.5,0 12.234,-1.868 16.547,-4.873 L 7.569,32.568 H 0.418 l -2.457,14.18 6.803,-2.892 v -4.695 c -4.808,4.059 -8.317,5.828 -13.225,5.828 -6.325,0 -11.245,-3.524 -11.245,-9.602 0,-5.434 3.402,-8.46 9.602,-11.02 l 4.042,-1.719 C 6.126,17.549 10.983,12.24 10.983,3.069 c 0,-11.081 -8.881,-18.393 -23.367,-18.393 -7.042,0 -14.449,1.909 -19.319,4.942 l 0.563,13.561 h 7.219 l 2.442,-14.841 -6.69,2.457 v 4.508 c 5.892,-3.709 9.429,-5.484 15.642,-5.484 C -4.744,-10.181 0,-6.187 0,0" /></g><g
           transform="translate(641.2979,354.0557)"
           id="g46"><path
             id="path48"
             style="fill:#ffd9b0;fill-opacity:1;fill-rule:nonzero;stroke:none"
             d="M 0,0 1.408,9.471 H 6.255 V -11.75 H 1.408 L 0,-1.81 Z m 17.703,-16.725 -0.657,-16.438 h -35.057 v 4.971 h 31.84 l -5.536,-4.971 2.843,16.438 z M 2.936,-3.656 H -18.01 V 1.283 H 2.936 Z m 3.479,32.787 5.535,-5.005 h -29.961 v 5.005 H 15.168 L 15.825,12.692 H 9.257 Z M -24.097,0.021 c 0,9.672 0,19.438 -0.282,29.11 h 12.737 c -0.282,-9.484 -0.282,-19.25 -0.282,-29.11 v -3.327 c 0,-10.42 0,-20.185 0.282,-29.857 h -12.737 c 0.282,9.484 0.282,19.25 0.282,29.109 z m 6.086,-27.365 v -5.819 h -14.145 v 4.411 l 12.931,1.408 z m -14.145,52.065 v 4.41 h 14.145 v -5.819 h -1.214 z" /></g><g
           transform="translate(679.6064,354.3662)"
           id="g50"><path
             id="path52"
             style="fill:#ffd9b0;fill-opacity:1;fill-rule:nonzero;stroke:none"
             d="m 0,0 h 11.394 c 9.727,0 13.576,5.446 13.576,12.26 0,7.715 -4.157,11.689 -12.854,11.689 H -0.069 v 4.871 h 14.174 c 14.575,0 22.888,-5.966 22.888,-16.044 0,-7.568 -5.809,-14.867 -20.316,-15.831 l 0.178,0.855 c 10.863,-0.555 14.788,-4.549 16.874,-13.827 l 3.534,-15.037 -5.359,3.335 11.912,-1.333 v -4.412 c -3.103,-0.804 -4.977,-1.145 -8.552,-1.145 -6.925,0 -10.564,1.916 -11.587,7.752 l -2.781,13.065 C 19.5,-6.851 16.611,-4.743 9.92,-4.743 H 0 Z m -6.155,-0.289 c 0,9.672 0,19.437 -0.282,29.109 H 6.162 C 5.88,19.158 5.88,9.749 5.88,-0.884 v -2.851 c 0,-10.301 0,-20.067 0.282,-29.739 H -6.437 c 0.282,9.485 0.282,19.25 0.282,29.11 z m 7.301,-27.365 12.931,-1.408 v -4.412 h -28.292 v 4.412 l 12.932,1.408 z M -14.215,24.41 v 4.41 h 14.146 v -5.819 h -1.214 z" /></g><g
           transform="translate(742.1465,354.3662)"
           id="g54"><path
             id="path56"
             style="fill:#ffd9b0;fill-opacity:1;fill-rule:nonzero;stroke:none"
             d="m 0,0 h 11.394 c 9.727,0 13.576,5.446 13.576,12.26 0,7.715 -4.157,11.689 -12.854,11.689 H -0.069 v 4.871 h 14.174 c 14.575,0 22.888,-5.966 22.888,-16.044 0,-7.568 -5.809,-14.867 -20.316,-15.831 l 0.178,0.855 c 10.863,-0.555 14.788,-4.549 16.874,-13.827 l 3.534,-15.037 -5.359,3.335 11.912,-1.333 v -4.412 c -3.103,-0.804 -4.977,-1.145 -8.552,-1.145 -6.925,0 -10.564,1.916 -11.587,7.752 l -2.781,13.065 C 19.5,-6.851 16.611,-4.743 9.92,-4.743 H 0 Z m -6.155,-0.289 c 0,9.672 0,19.437 -0.282,29.109 H 6.162 C 5.88,19.158 5.88,9.749 5.88,-0.884 v -2.851 c 0,-10.301 0,-20.067 0.282,-29.739 H -6.437 c 0.282,9.485 0.282,19.25 0.282,29.11 z m 7.301,-27.365 12.931,-1.408 v -4.412 h -28.292 v 4.412 l 12.932,1.408 z M -14.215,24.41 v 4.41 h 14.146 v -5.819 h -1.214 z" /></g><g
           transform="translate(822.3232,325.2002)"
           id="g58"><path
             id="path60"
             style="fill:#ffd9b0;fill-opacity:1;fill-rule:nonzero;stroke:none"
             d="m 0,0 11.211,1.408 h 4.118 L 27.181,0 V -4.308 H 0 Z M -17.12,19.818 H 8.233 l 1.813,-4.905 H -18.657 Z M -6.582,58.284 H 1.12 L 22.477,-4.308 H 10.021 l -17.426,53.284 2.848,2.413 -18.535,-55.697 h -5 z m -27.328,-58.18 9.528,1.408 h 1.775 l 9.605,-1.408 V -4.308 H -33.91 Z" /></g><g
           transform="translate(249.0859,273.25)"
           id="g62"><path
             id="path64"
             style="fill:#ffd9b0;fill-opacity:1;fill-rule:nonzero;stroke:none"
             d="m 0,0 c 1.45,-0.02 2.655,0.301 3.617,0.959 0.962,0.658 1.685,1.578 2.167,2.758 0.484,1.179 0.726,2.551 0.726,4.115 0,1.563 -0.242,2.93 -0.726,4.1 -0.482,1.17 -1.205,2.082 -2.167,2.736 C 2.655,15.322 1.45,15.652 0,15.662 -1.449,15.682 -2.655,15.363 -3.617,14.711 -4.579,14.057 -5.301,13.137 -5.784,11.953 -6.268,10.768 -6.515,9.395 -6.523,7.832 -6.533,6.268 -6.296,4.9 -5.812,3.73 -5.33,2.561 -4.603,1.648 -3.631,0.994 -2.66,0.342 -1.449,0.01 0,0 m 0,-2.828 c -2.047,0 -3.79,0.447 -5.23,1.344 -1.441,0.894 -2.542,2.142 -3.304,3.744 -0.764,1.601 -1.145,3.459 -1.145,5.572 0,2.111 0.381,3.969 1.145,5.57 0.762,1.602 1.863,2.85 3.304,3.746 1.44,0.895 3.183,1.342 5.23,1.342 2.037,0 3.778,-0.447 5.224,-1.342 C 6.668,16.252 7.77,15.004 8.527,13.402 9.285,11.801 9.665,9.943 9.665,7.832 9.665,5.719 9.285,3.861 8.527,2.26 7.77,0.658 6.668,-0.59 5.224,-1.484 3.778,-2.381 2.037,-2.828 0,-2.828" /></g><g
           transform="translate(268.9834,270.8477)"
           id="g66"><path
             id="path68"
             style="fill:#ffd9b0;fill-opacity:1;fill-rule:nonzero;stroke:none"
             d="m 0,0 v 20.467 h 2.687 l 7.418,-15.393 7.376,15.393 h 2.715 V 0.016 H 17.383 V 14.014 L 10.773,0 H 9.423 L 2.8,14.014 V 0 Z" /></g><g
           transform="translate(293.625,270.8477)"
           id="g70"><path
             id="path72"
             style="fill:#ffd9b0;fill-opacity:1;fill-rule:nonzero;stroke:none"
             d="M 0,0 V 20.467 H 13.076 V 17.666 H 2.971 v -5.74 H 11.37 V 9.125 H 2.971 V 2.801 H 13.076 V 0 Z" /></g><g
           transform="translate(310.1738,270.8477)"
           id="g74"><path
             id="path76"
             style="fill:#ffd9b0;fill-opacity:1;fill-rule:nonzero;stroke:none"
             d="M 0,0 V 20.467 H 2.971 V 2.801 h 9.266 V 0 Z" /></g><g
           transform="translate(325.1855,270.8477)"
           id="g78"><path
             id="path80"
             style="fill:#ffd9b0;fill-opacity:1;fill-rule:nonzero;stroke:none"
             d="m 0,0 v 20.467 h 2.971 v -8.826 h 10.232 v 8.826 h 2.985 V 0 H 13.203 V 8.84 H 2.971 V 0 Z" /></g><g
           transform="translate(354.4746,273.25)"
           id="g82"><path
             id="path84"
             style="fill:#ffd9b0;fill-opacity:1;fill-rule:nonzero;stroke:none"
             d="m 0,0 c 1.45,-0.02 2.655,0.301 3.617,0.959 0.962,0.658 1.685,1.578 2.167,2.758 0.484,1.179 0.726,2.551 0.726,4.115 0,1.563 -0.242,2.93 -0.726,4.1 -0.482,1.17 -1.205,2.082 -2.167,2.736 C 2.655,15.322 1.45,15.652 0,15.662 -1.449,15.682 -2.655,15.363 -3.617,14.711 -4.579,14.057 -5.301,13.137 -5.784,11.953 -6.268,10.768 -6.515,9.395 -6.523,7.832 -6.533,6.268 -6.296,4.9 -5.812,3.73 -5.33,2.561 -4.603,1.648 -3.631,0.994 -2.66,0.342 -1.449,0.01 0,0 m 0,-2.828 c -2.047,0 -3.79,0.447 -5.23,1.344 -1.441,0.894 -2.542,2.142 -3.304,3.744 -0.764,1.601 -1.145,3.459 -1.145,5.572 0,2.111 0.381,3.969 1.145,5.57 0.762,1.602 1.863,2.85 3.304,3.746 1.44,0.895 3.183,1.342 5.23,1.342 2.037,0 3.778,-0.447 5.224,-1.342 C 6.668,16.252 7.77,15.004 8.527,13.402 9.285,11.801 9.665,9.943 9.665,7.832 9.665,5.719 9.285,3.861 8.527,2.26 7.77,0.658 6.668,-0.59 5.224,-1.484 3.778,-2.381 2.037,-2.828 0,-2.828" /></g><g
           transform="translate(379.5283,270.8477)"
           id="g86"><path
             id="path88"
             style="fill:#ffd9b0;fill-opacity:1;fill-rule:nonzero;stroke:none"
             d="M 0,0 -4.036,8.33 -1.037,9.096 3.396,0 Z m -8.996,10.162 h 5.187 c 0.19,0 0.4,0.01 0.632,0.029 0.233,0.018 0.453,0.051 0.661,0.1 0.607,0.141 1.095,0.404 1.464,0.789 0.369,0.383 0.635,0.826 0.796,1.328 0.161,0.502 0.241,1.004 0.241,1.506 0,0.502 -0.08,1.002 -0.241,1.5 -0.161,0.498 -0.427,0.938 -0.796,1.322 -0.369,0.383 -0.857,0.647 -1.464,0.789 -0.208,0.057 -0.428,0.094 -0.661,0.114 -0.232,0.019 -0.442,0.027 -0.632,0.027 H -8.996 Z M -11.967,0 v 20.467 h 8.272 c 0.199,0 0.445,-0.008 0.739,-0.022 0.293,-0.013 0.573,-0.045 0.839,-0.091 1.137,-0.18 2.086,-0.569 2.849,-1.167 0.762,-0.597 1.333,-1.349 1.712,-2.259 0.379,-0.91 0.569,-1.914 0.569,-3.014 0,-1.629 -0.417,-3.033 -1.25,-4.213 C 0.929,8.521 -0.322,7.783 -1.989,7.49 L -3.198,7.348 H -8.996 V 0 Z" /></g><g
           transform="translate(396.4844,273.6758)"
           id="g90"><path
             id="path92"
             style="fill:#ffd9b0;fill-opacity:1;fill-rule:nonzero;stroke:none"
             d="M 0,0 H 3.368 C 3.69,0 4.074,0.01 4.52,0.029 4.965,0.049 5.358,0.086 5.699,0.143 6.741,0.342 7.587,0.795 8.236,1.5 c 0.649,0.705 1.125,1.576 1.428,2.607 0.304,1.034 0.455,2.133 0.455,3.299 0,1.203 -0.156,2.319 -0.469,3.346 -0.312,1.029 -0.794,1.891 -1.442,2.588 -0.649,0.695 -1.485,1.139 -2.509,1.328 -0.341,0.066 -0.737,0.107 -1.186,0.121 -0.451,0.014 -0.832,0.022 -1.145,0.022 H 0 Z m -3.042,-2.828 v 20.467 h 6.41 c 0.19,0 0.542,-0.006 1.059,-0.014 0.516,-0.01 1.011,-0.049 1.485,-0.115 1.602,-0.198 2.949,-0.772 4.044,-1.719 1.094,-0.947 1.921,-2.148 2.48,-3.603 0.559,-1.454 0.838,-3.049 0.838,-4.782 0,-1.744 -0.279,-3.344 -0.838,-4.797 C 11.877,1.154 11.05,-0.045 9.956,-0.986 8.861,-1.93 7.514,-2.5 5.912,-2.699 5.438,-2.766 4.943,-2.805 4.427,-2.813 3.91,-2.822 3.558,-2.828 3.368,-2.828 Z" /></g><path
           id="path94"
           style="fill:#ffd9b0;fill-opacity:1;fill-rule:nonzero;stroke:none"
           d="m 414.511,278.254 h 10.688 v -2.787 h -10.688 z m -3.453,-7.406 6.651,20.466 h 4.278 l 6.652,-20.466 h -3.084 l -6.126,18.675 h 0.767 l -6.054,-18.675 z" /><g
           transform="translate(441.5576,281.0098)"
           id="g96"><path
             id="path98"
             style="fill:#ffd9b0;fill-opacity:1;fill-rule:nonzero;stroke:none"
             d="m 0,0 h 5.187 c 0.19,0 0.4,0.01 0.632,0.029 0.233,0.018 0.453,0.051 0.661,0.1 0.607,0.141 1.095,0.404 1.464,0.789 0.369,0.383 0.635,0.826 0.796,1.328 0.161,0.502 0.241,1.004 0.241,1.506 0,0.502 -0.08,1.002 -0.241,1.5 C 8.579,5.75 8.313,6.189 7.944,6.574 7.575,6.957 7.087,7.221 6.48,7.363 6.272,7.42 6.052,7.457 5.819,7.477 5.587,7.496 5.377,7.504 5.187,7.504 H 0 Z M -2.971,-10.162 V 10.305 H 5.301 C 5.5,10.305 5.746,10.297 6.04,10.283 6.333,10.27 6.613,10.238 6.879,10.191 8.016,10.012 8.965,9.623 9.729,9.025 10.49,8.428 11.062,7.676 11.44,6.766 11.819,5.855 12.009,4.852 12.009,3.752 12.009,2.645 11.819,1.635 11.44,0.725 11.062,-0.184 10.49,-0.937 9.729,-1.535 8.965,-2.131 8.016,-2.52 6.879,-2.699 6.613,-2.738 6.331,-2.766 6.033,-2.785 5.734,-2.805 5.49,-2.814 5.301,-2.814 H 0 v -7.348 z" /></g><g
           transform="translate(468.5078,270.8477)"
           id="g100"><path
             id="path102"
             style="fill:#ffd9b0;fill-opacity:1;fill-rule:nonzero;stroke:none"
             d="M 0,0 -4.037,8.33 -1.038,9.096 3.396,0 Z m -8.997,10.162 h 5.187 c 0.19,0 0.401,0.01 0.633,0.029 0.232,0.018 0.452,0.051 0.661,0.1 0.606,0.141 1.094,0.404 1.464,0.789 0.369,0.383 0.634,0.826 0.796,1.328 0.16,0.502 0.241,1.004 0.241,1.506 0,0.502 -0.081,1.002 -0.241,1.5 -0.162,0.498 -0.427,0.938 -0.796,1.322 -0.37,0.383 -0.858,0.647 -1.464,0.789 -0.209,0.057 -0.429,0.094 -0.661,0.114 -0.232,0.019 -0.443,0.027 -0.633,0.027 H -8.997 Z M -11.968,0 v 20.467 h 8.273 c 0.198,0 0.445,-0.008 0.738,-0.022 0.294,-0.013 0.573,-0.045 0.839,-0.091 1.137,-0.18 2.087,-0.569 2.849,-1.167 0.763,-0.597 1.334,-1.349 1.713,-2.259 0.379,-0.91 0.569,-1.914 0.569,-3.014 0,-1.629 -0.417,-3.033 -1.251,-4.213 C 0.928,8.521 -0.322,7.783 -1.99,7.49 L -3.198,7.348 H -8.997 V 0 Z" /></g><path
           id="path104"
           style="fill:#ffd9b0;fill-opacity:1;fill-rule:nonzero;stroke:none"
           d="m 477.785,278.254 h 10.688 v -2.787 h -10.688 z m -3.454,-7.406 6.652,20.466 h 4.278 l 6.652,-20.466 h -3.085 l -6.125,18.675 h 0.767 l -6.054,-18.675 z" /><path
           id="path106"
           style="fill:#ffd9b0;fill-opacity:1;fill-rule:nonzero;stroke:none"
           d="m 494.893,291.314 h 2.97 v -20.467 h -2.97 z" /><path
           id="path108"
           style="fill:#ffd9b0;fill-opacity:1;fill-rule:nonzero;stroke:none"
           d="m 504.295,278.254 h 10.688 v -2.787 h -10.688 z m -3.454,-7.406 6.651,20.466 h 4.279 l 6.651,-20.466 h -3.084 l -6.126,18.675 h 0.767 l -6.054,-18.675 z" /><g
           transform="translate(521.75,267.4512)"
           id="g110"><path
             id="path112"
             style="fill:#ffd9b0;fill-opacity:1;fill-rule:nonzero;stroke:none"
             d="M 0,0 0.186,1.322 C 0.593,1.293 0.91,1.369 1.138,1.549 1.365,1.729 1.517,1.98 1.592,2.303 1.668,2.625 1.683,2.99 1.635,3.396 H 0 V 6.822 H 3.142 V 3.113 C 3.142,1.994 2.874,1.152 2.339,0.582 1.803,0.014 1.023,-0.18 0,0" /></g><g
           transform="translate(546.2246,270.4219)"
           id="g114"><path
             id="path116"
             style="fill:#ffd9b0;fill-opacity:1;fill-rule:nonzero;stroke:none"
             d="m 0,0 c -2.046,0 -3.79,0.447 -5.229,1.344 -1.441,0.894 -2.542,2.142 -3.305,3.744 -0.763,1.601 -1.145,3.459 -1.145,5.572 0,2.111 0.382,3.969 1.145,5.57 0.763,1.602 1.864,2.85 3.305,3.747 1.439,0.894 3.183,1.341 5.229,1.341 2.359,0 4.313,-0.595 5.863,-1.791 1.549,-1.193 2.627,-2.798 3.234,-4.816 L 6.083,13.9 C 5.686,15.33 4.977,16.453 3.959,17.268 2.939,18.084 1.62,18.49 0,18.49 -1.449,18.49 -2.657,18.164 -3.624,17.51 -4.591,16.855 -5.317,15.941 -5.806,14.768 -6.294,13.592 -6.537,12.223 -6.537,10.66 -6.547,9.096 -6.308,7.727 -5.819,6.553 -5.332,5.377 -4.603,4.463 -3.631,3.809 -2.66,3.154 -1.449,2.828 0,2.828 c 1.62,0 2.939,0.41 3.959,1.229 1.018,0.82 1.727,1.941 2.124,3.361 L 9.097,6.609 C 8.49,4.59 7.412,2.984 5.863,1.791 4.313,0.598 2.359,0 0,0" /></g><g
           transform="translate(567.333,273.25)"
           id="g118"><path
             id="path120"
             style="fill:#ffd9b0;fill-opacity:1;fill-rule:nonzero;stroke:none"
             d="m 0,0 c 1.45,-0.02 2.655,0.301 3.617,0.959 0.962,0.658 1.685,1.578 2.168,2.758 0.484,1.179 0.725,2.551 0.725,4.115 0,1.563 -0.241,2.93 -0.725,4.1 -0.483,1.17 -1.206,2.082 -2.168,2.736 C 2.655,15.322 1.45,15.652 0,15.662 -1.449,15.682 -2.655,15.363 -3.617,14.711 -4.578,14.057 -5.301,13.137 -5.784,11.953 -6.268,10.768 -6.514,9.395 -6.523,7.832 -6.533,6.268 -6.296,4.9 -5.812,3.73 -5.329,2.561 -4.603,1.648 -3.631,0.994 -2.66,0.342 -1.449,0.01 0,0 m 0,-2.828 c -2.046,0 -3.79,0.447 -5.229,1.344 -1.441,0.894 -2.542,2.142 -3.305,3.744 -0.763,1.601 -1.145,3.459 -1.145,5.572 0,2.111 0.382,3.969 1.145,5.57 0.763,1.602 1.864,2.85 3.305,3.746 1.439,0.895 3.183,1.342 5.229,1.342 2.037,0 3.778,-0.447 5.224,-1.342 C 6.668,16.252 7.77,15.004 8.528,13.402 9.286,11.801 9.665,9.943 9.665,7.832 9.665,5.719 9.286,3.861 8.528,2.26 7.77,0.658 6.668,-0.59 5.224,-1.484 3.778,-2.381 2.037,-2.828 0,-2.828" /></g><g
           transform="translate(580.4209,270.8477)"
           id="g122"><path
             id="path124"
             style="fill:#ffd9b0;fill-opacity:1;fill-rule:nonzero;stroke:none"
             d="m 0,0 v 20.467 h 2.686 l 7.418,-15.393 7.377,15.393 h 2.714 V 0.016 H 17.382 V 14.014 L 10.772,0 H 9.423 L 2.8,14.014 V 0 Z" /></g><g
           transform="translate(620.5273,270.4219)"
           id="g126"><path
             id="path128"
             style="fill:#ffd9b0;fill-opacity:1;fill-rule:nonzero;stroke:none"
             d="m 0,0 c -2.046,0 -3.79,0.447 -5.229,1.344 -1.441,0.894 -2.542,2.142 -3.305,3.744 -0.763,1.601 -1.145,3.459 -1.145,5.572 0,2.111 0.382,3.969 1.145,5.57 0.763,1.602 1.864,2.85 3.305,3.747 1.439,0.894 3.183,1.341 5.229,1.341 2.359,0 4.313,-0.595 5.863,-1.791 1.549,-1.193 2.627,-2.798 3.234,-4.816 L 6.083,13.9 C 5.686,15.33 4.977,16.453 3.959,17.268 2.939,18.084 1.62,18.49 0,18.49 -1.449,18.49 -2.657,18.164 -3.624,17.51 -4.591,16.855 -5.317,15.941 -5.806,14.768 -6.294,13.592 -6.537,12.223 -6.537,10.66 -6.547,9.096 -6.308,7.727 -5.819,6.553 -5.332,5.377 -4.603,4.463 -3.631,3.809 -2.66,3.154 -1.449,2.828 0,2.828 c 1.62,0 2.939,0.41 3.959,1.229 1.018,0.82 1.727,1.941 2.124,3.361 L 9.097,6.609 C 8.49,4.59 7.412,2.984 5.863,1.791 4.313,0.598 2.359,0 0,0" /></g><g
           transform="translate(633.0869,270.8477)"
           id="g130"><path
             id="path132"
             style="fill:#ffd9b0;fill-opacity:1;fill-rule:nonzero;stroke:none"
             d="M 0,0 V 20.467 H 2.97 V 2.801 h 9.266 V 0 Z" /></g><path
           id="path134"
           style="fill:#ffd9b0;fill-opacity:1;fill-rule:nonzero;stroke:none"
           d="m 648.234,291.314 h 2.97 v -20.467 h -2.97 z" /><g
           transform="translate(655.79,270.8477)"
           id="g136"><path
             id="path138"
             style="fill:#ffd9b0;fill-opacity:1;fill-rule:nonzero;stroke:none"
             d="m 0,0 v 20.467 h 2.686 l 7.418,-15.393 7.377,15.393 h 2.714 V 0.016 H 17.382 V 14.014 L 10.772,0 H 9.423 L 2.8,14.014 V 0 Z" /></g><path
           id="path140"
           style="fill:#ffd9b0;fill-opacity:1;fill-rule:nonzero;stroke:none"
           d="m 682.281,278.254 h 10.688 v -2.787 h -10.688 z m -3.454,-7.406 6.652,20.466 h 4.278 l 6.651,-20.466 h -3.084 l -6.126,18.675 h 0.768 l -6.055,-18.675 z" /><g
           transform="translate(709.3984,273.6758)"
           id="g142"><path
             id="path144"
             style="fill:#ffd9b0;fill-opacity:1;fill-rule:nonzero;stroke:none"
             d="M 0,0 H 3.368 C 3.69,0 4.074,0.01 4.52,0.029 4.965,0.049 5.358,0.086 5.699,0.143 6.741,0.342 7.587,0.795 8.236,1.5 c 0.649,0.705 1.125,1.576 1.429,2.607 0.303,1.034 0.454,2.133 0.454,3.299 0,1.203 -0.156,2.319 -0.469,3.346 -0.312,1.029 -0.794,1.891 -1.442,2.588 -0.649,0.695 -1.485,1.139 -2.509,1.328 -0.341,0.066 -0.736,0.107 -1.186,0.121 -0.451,0.014 -0.832,0.022 -1.145,0.022 H 0 Z m -3.041,-2.828 v 20.467 h 6.409 c 0.19,0 0.543,-0.006 1.06,-0.014 0.515,-0.01 1.01,-0.049 1.484,-0.115 1.602,-0.198 2.949,-0.772 4.044,-1.719 1.095,-0.947 1.921,-2.148 2.481,-3.603 0.558,-1.454 0.837,-3.049 0.837,-4.782 0,-1.744 -0.279,-3.344 -0.837,-4.797 C 11.877,1.154 11.051,-0.045 9.956,-0.986 8.861,-1.93 7.514,-2.5 5.912,-2.699 5.438,-2.766 4.943,-2.805 4.428,-2.813 3.911,-2.822 3.558,-2.828 3.368,-2.828 Z" /></g><path
           id="path146"
           style="fill:#ffd9b0;fill-opacity:1;fill-rule:nonzero;stroke:none"
           d="m 727.426,278.254 h 10.688 v -2.787 h -10.688 z m -3.454,-7.406 6.651,20.466 h 4.278 l 6.652,-20.466 h -3.084 l -6.126,18.675 h 0.767 l -6.054,-18.675 z" /><g
           transform="translate(758.9209,270.4219)"
           id="g148"><path
             id="path150"
             style="fill:#ffd9b0;fill-opacity:1;fill-rule:nonzero;stroke:none"
             d="m 0,0 c -1.469,0 -2.793,0.254 -3.973,0.76 -1.179,0.508 -2.151,1.232 -2.914,2.176 -0.762,0.941 -1.258,2.062 -1.485,3.361 l 3.099,0.469 c 0.312,-1.252 0.966,-2.225 1.961,-2.922 0.995,-0.696 2.156,-1.045 3.482,-1.045 0.824,0 1.582,0.131 2.274,0.392 0.692,0.26 1.248,0.635 1.67,1.121 0.422,0.489 0.633,1.075 0.633,1.756 0,0.369 -0.064,0.698 -0.192,0.981 C 4.427,7.334 4.251,7.582 4.029,7.795 3.807,8.008 3.536,8.193 3.219,8.35 2.901,8.506 2.553,8.641 2.174,8.756 l -5.244,1.549 c -0.512,0.15 -1.034,0.347 -1.564,0.59 -0.53,0.24 -1.016,0.558 -1.457,0.951 -0.44,0.392 -0.798,0.881 -1.073,1.465 -0.274,0.582 -0.412,1.291 -0.412,2.125 0,1.259 0.325,2.328 0.973,3.205 0.65,0.875 1.529,1.539 2.637,1.988 1.109,0.451 2.35,0.676 3.724,0.676 1.384,-0.02 2.622,-0.266 3.717,-0.739 1.094,-0.474 2.004,-1.154 2.728,-2.041 0.726,-0.884 1.225,-1.959 1.5,-3.218 L 4.52,14.768 c -0.143,0.767 -0.446,1.427 -0.911,1.982 -0.463,0.555 -1.032,0.98 -1.705,1.279 -0.673,0.297 -1.402,0.451 -2.188,0.461 -0.759,0.02 -1.452,-0.094 -2.083,-0.34 -0.63,-0.248 -1.132,-0.593 -1.506,-1.039 -0.375,-0.445 -0.562,-0.957 -0.562,-1.535 0,-0.568 0.165,-1.027 0.497,-1.377 0.333,-0.351 0.742,-0.629 1.23,-0.832 0.488,-0.205 0.974,-0.373 1.457,-0.504 l 3.78,-1.066 C 3.003,11.664 3.541,11.486 4.143,11.264 4.744,11.041 5.327,10.73 5.891,10.332 6.454,9.934 6.921,9.406 7.291,8.748 7.66,8.09 7.845,7.262 7.845,6.268 7.845,5.234 7.637,4.328 7.22,3.547 6.803,2.764 6.231,2.111 5.507,1.584 4.782,1.059 3.946,0.662 2.998,0.398 2.051,0.133 1.052,0 0,0" /></g><g
           transform="translate(770.2861,270.8477)"
           id="g152"><path
             id="path154"
             style="fill:#ffd9b0;fill-opacity:1;fill-rule:nonzero;stroke:none"
             d="M 0,0 V 20.467 H 13.075 V 17.666 H 2.97 v -5.74 h 8.4 V 9.125 H 2.97 V 2.801 H 13.075 V 0 Z" /></g><g
           transform="translate(798.6621,270.8477)"
           id="g156"><path
             id="path158"
             style="fill:#ffd9b0;fill-opacity:1;fill-rule:nonzero;stroke:none"
             d="M 0,0 -4.036,8.33 -1.038,9.096 3.396,0 Z m -8.997,10.162 h 5.187 c 0.19,0 0.401,0.01 0.633,0.029 0.233,0.018 0.452,0.051 0.661,0.1 0.607,0.141 1.094,0.404 1.464,0.789 0.369,0.383 0.635,0.826 0.796,1.328 0.161,0.502 0.241,1.004 0.241,1.506 0,0.502 -0.08,1.002 -0.241,1.5 -0.161,0.498 -0.427,0.938 -0.796,1.322 -0.37,0.383 -0.857,0.647 -1.464,0.789 -0.209,0.057 -0.428,0.094 -0.661,0.114 -0.232,0.019 -0.443,0.027 -0.633,0.027 H -8.997 Z M -11.967,0 v 20.467 h 8.272 c 0.199,0 0.445,-0.008 0.739,-0.022 0.293,-0.013 0.573,-0.045 0.838,-0.091 1.138,-0.18 2.087,-0.569 2.849,-1.167 0.763,-0.597 1.334,-1.349 1.713,-2.259 0.379,-0.91 0.569,-1.914 0.569,-3.014 0,-1.629 -0.417,-3.033 -1.251,-4.213 C 0.929,8.521 -0.322,7.783 -1.99,7.49 L -3.198,7.348 H -8.997 V 0 Z" /></g><g
           transform="translate(817.4736,270.8477)"
           id="g160"><path
             id="path162"
             style="fill:#ffd9b0;fill-opacity:1;fill-rule:nonzero;stroke:none"
             d="M 0,0 -4.036,8.33 -1.038,9.096 3.396,0 Z m -8.997,10.162 h 5.187 c 0.19,0 0.401,0.01 0.633,0.029 0.233,0.018 0.452,0.051 0.661,0.1 0.607,0.141 1.094,0.404 1.464,0.789 0.369,0.383 0.635,0.826 0.796,1.328 0.161,0.502 0.241,1.004 0.241,1.506 0,0.502 -0.08,1.002 -0.241,1.5 -0.161,0.498 -0.427,0.938 -0.796,1.322 -0.37,0.383 -0.857,0.647 -1.464,0.789 -0.209,0.057 -0.428,0.094 -0.661,0.114 -0.232,0.019 -0.443,0.027 -0.633,0.027 H -8.997 Z M -11.967,0 v 20.467 h 8.272 c 0.199,0 0.445,-0.008 0.739,-0.022 0.293,-0.013 0.573,-0.045 0.838,-0.091 1.138,-0.18 2.087,-0.569 2.849,-1.167 0.763,-0.597 1.334,-1.349 1.713,-2.259 0.379,-0.91 0.569,-1.914 0.569,-3.014 0,-1.629 -0.417,-3.033 -1.251,-4.213 C 0.929,8.521 -0.322,7.783 -1.99,7.49 L -3.198,7.348 H -8.997 V 0 Z" /></g><path
           id="path164"
           style="fill:#ffd9b0;fill-opacity:1;fill-rule:nonzero;stroke:none"
           d="m 826.752,278.254 h 10.688 v -2.787 h -10.688 z m -3.454,-7.406 6.651,20.466 h 4.279 l 6.651,-20.466 h -3.084 l -6.126,18.675 h 0.768 l -6.055,-18.675 z" /><path
           id="path166"
           style="fill:#ffd9b0;fill-opacity:1;fill-rule:nonzero;stroke:none"
           d="m 480.882,415.359 h 10.688 v -2.786 h -10.688 z m -3.454,-7.405 6.652,20.466 h 4.278 l 6.651,-20.466 h -3.084 L 485.8,426.63 h 0.767 l -6.054,-18.676 z" /><g
           transform="translate(518.062,407.9541)"
           id="g168"><path
             id="path170"
             style="fill:#ffd9b0;fill-opacity:1;fill-rule:nonzero;stroke:none"
             d="M 0,0 -4.036,8.329 -1.038,9.096 3.396,0 Z m -8.997,10.162 h 5.187 c 0.19,0 0.401,0.009 0.633,0.028 0.233,0.019 0.452,0.052 0.661,0.1 0.607,0.142 1.094,0.405 1.464,0.789 0.369,0.384 0.635,0.826 0.796,1.328 0.161,0.503 0.241,1.005 0.241,1.507 0,0.502 -0.08,1.002 -0.241,1.5 -0.161,0.497 -0.427,0.938 -0.796,1.321 -0.37,0.384 -0.857,0.647 -1.464,0.789 -0.209,0.057 -0.428,0.095 -0.661,0.114 -0.232,0.019 -0.443,0.028 -0.633,0.028 H -8.997 Z M -11.967,0 v 20.466 h 8.272 c 0.199,0 0.445,-0.007 0.739,-0.021 0.293,-0.014 0.573,-0.046 0.838,-0.092 1.138,-0.18 2.087,-0.569 2.849,-1.166 0.763,-0.597 1.334,-1.35 1.713,-2.259 0.379,-0.91 0.569,-1.914 0.569,-3.014 C 3.013,12.284 2.596,10.88 1.762,9.7 0.929,8.521 -0.322,7.783 -1.99,7.49 L -3.198,7.348 H -8.997 V 0 Z" /></g><g
           transform="translate(533.1509,407.9541)"
           id="g172"><path
             id="path174"
             style="fill:#ffd9b0;fill-opacity:1;fill-rule:nonzero;stroke:none"
             d="m 0,0 v 20.466 h 13.076 v -2.8 H 2.97 v -5.741 h 8.401 v -2.8 H 2.97 V 2.8 H 13.076 V 0 Z" /></g><g
           transform="translate(557.8027,407.9541)"
           id="g176"><path
             id="path178"
             style="fill:#ffd9b0;fill-opacity:1;fill-rule:nonzero;stroke:none"
             d="M 0,0 V 20.466 H 3.014 L 13.09,5.259 v 15.207 h 3.014 V 0 H 13.09 L 3.014,15.222 V 0 Z" /></g><path
           id="path180"
           style="fill:#ffd9b0;fill-opacity:1;fill-rule:nonzero;stroke:none"
           d="m 588.445,415.359 h 10.688 v -2.786 h -10.688 z m -3.453,-7.405 6.651,20.466 h 4.279 l 6.65,-20.466 h -3.084 l -6.125,18.676 h 0.768 l -6.055,-18.676 z" /><g
           transform="translate(655.0768,644.1605)"
           id="g182"><path
             id="path184"
             style="fill:#ffd9b0;fill-opacity:1;fill-rule:nonzero;stroke:none"
             d="m 0,0 c -6.71,-1.9 -13.51,-3.83 -20.31,-5.76 0.06,-0.23 0.13,-0.45 0.19,-0.67 7.86,0 14.6,-2.52 20.12,-6.24 v -14.02 c -6.82,2.01 -13.83,3.54 -21.1,4.85 6.62,-5.65 11.1,-12.19 13.81,-19.9 2.71,-7.69 3.24,-15.54 1.56,-23.99 -8.38,12.19 -18.04,22.52 -29.44,31.71 0.38,-0.31 0.29,-2.85 0.34,-3.39 0.12,-1.33 0.24,-2.66 0.34,-3.99 0.2,-2.55 0.37,-5.1 0.5,-7.66 0.26,-5.08 0.38,-10.16 0.36,-15.25 -0.05,-10.12 -0.66,-20.24 -1.84,-30.29 -0.8,-6.73 -2.1,-13.4 -2.62,-20.12 -0.21,-2.67 -0.33,-5.35 -0.35,-8.03 -0.04,-4.48 0.18,-8.96 0.66,-13.42 -4.32,1.38 -8.37,3.58 -11.87,6.46 -0.25,0.21 -0.51,0.43 -0.67,0.73 -0.16,0.3 -0.2,0.66 -0.22,1.01 -0.33,4.19 -0.19,8.42 0.43,12.58 0.3,2.05 0.71,4.09 1.24,6.1 0.68,2.59 1.81,4.97 1.85,7.65 0.04,3.08 0.77,6.21 1.13,9.27 0.92,7.82 1.91,15.64 2.4,23.49 0.74,11.84 -0.15,23.67 -1.14,35.47 -0.13,1.6 -0.41,3.18 -0.66,5 -8.9,-10.78 -17.55,-21.25 -26.49,-32.08 -1.93,8.69 -0.92,16.48 1.97,24.04 2.94,7.67 7.74,13.76 15.6,17.24 -12.86,2.57 -25.23,1.31 -37.54,-2.13 7.9,12 19.01,17.92 33.4,18.04 -7.72,4.37 -15.46,7.82 -24.07,9.04 8.52,4.65 17.26,5.06 26.51,1.42 -3.24,11.33 -10.59,19.14 -18.78,26.37 17.64,-3.48 29.96,-13.1 35.08,-31.11 8.46,17.36 25.66,22.77 39.61,22.73 L 0,18.1 C -6.22,14.5 -12,10.23 -17.51,5.4 -10.77,5.22 -3,3.11 0,0.92 0.31,0.68 0.57,0.45 0.77,0.22 0.51,0.15 0.26,0.08 0,0" /></g><g
           transform="translate(617.8668,489.7205)"
           id="g186"><path
             id="path188"
             style="fill:#ffd9b0;fill-opacity:1;fill-rule:evenodd;stroke:none"
             d="m 0,0 c -6.04,3.43 -47.33,47.2 -50.27,47.79 -6.89,1.43 27.97,-42.11 21.25,-42.59 -6.73,-0.48 -19.2,17.43 -25.14,21.77 -10.18,7.45 -5.8,2.01 -12.69,12.45 -6.89,10.44 -11.32,22.82 -20.66,31.33 -2.89,2.64 -1.12,-10.43 -2.09,-13.71 -0.97,-3.28 -15.98,11.66 -15.17,8.06 1.36,-5.95 17.41,-25.21 20.4,-30.79 2.99,-5.58 23.91,-22.21 27.48,-28.84 3.46,-6.43 -29.53,22.1 -35.05,27.09 -5.51,5 -17.96,24.67 -24.48,28.06 -2.4,1.26 0.8,-11.15 -1.39,-12.13 -2.18,-0.98 19.76,-27.84 17.32,-26.65 -2.86,1.38 -23.85,22.02 -25.37,24.79 -1.51,2.79 -2.13,12.61 -4.85,11.74 -7.89,-2.53 -10.6,-11.89 -16.68,-17.12 -6.1,-5.22 -22.78,-15.27 -18.46,-19.05 8.72,-7.62 10.61,-4.41 19.95,-11.21 9.34,-6.79 15.43,-4.57 22.58,-13.62 3.85,-4.86 -13.86,5.29 -19.52,7.45 -5.67,2.16 -8.75,-0.26 -14.57,0.68 -2.29,0.37 17.86,-17.34 15.93,-18.26 -1.93,-0.92 -12.96,11.09 -15.25,11.27 -1.56,0.12 -7.22,5.5 -12.28,10.33 -5.53,7.16 -10.23,14.98 -13.96,23.33 1.52,-1.24 3,-2.23 4.22,-1.49 9.82,5.99 19.11,12.88 27.32,20.78 5.13,4.92 7,13.45 12.07,18.47 6.92,6.86 7.24,10.1 15.68,3.74 1.94,-1.46 3.86,-5.21 5.8,-4.37 6.06,2.64 9.53,8.74 14.31,13.11 0.34,0.31 0.66,0.65 0.97,1.02 0.71,0.81 1.36,1.75 2.01,2.75 3.17,4.92 5.92,11.11 11.32,9.35 13.03,-4.25 21.17,-18.76 31.76,-28.14 10.59,-9.38 20.43,-19.71 31.76,-28.15 4.86,-3.62 8.42,0.15 12.85,-0.19 1.22,-0.08 2.5,-0.49 3.9,-1.44 2.42,-1.66 5.05,-3.69 7.77,-5.92 C 5.13,26.47 11.98,20.16 17.8,15.12 16.56,13.27 15.27,11.45 13.92,9.68 7.32,13.85 1.57,17.31 -1.53,18.59 -7.78,21.18 13.28,-7.53 0,0" /></g><g
           transform="translate(567.3867,680.8405)"
           id="g190"><path
             id="path192"
             style="fill:#ffd9b0;fill-opacity:1;fill-rule:nonzero;stroke:none"
             d="m 0,0 c -0.1,0 -0.2,0 -0.31,-0.01 0.47,1.03 0.62,1.47 0.56,1.85 l 51.87,61.59 c 0.8,-0.6 1.61,-1.2 2.42,-1.81 z m -0.99,0.64 -0.18,-0.66 c -0.04,-0.08 -0.08,-0.17 -0.11,-0.26 -0.76,-0.37 -1.32,-1.11 -1.45,-2.01 -0.06,-0.51 0.03,-1 0.22,-1.44 -0.31,-0.56 -0.73,-0.84 -1.43,-0.97 -0.41,0.24 -1.22,0.95 -1.69,2.89 -0.02,1.04 -0.04,2.07 -0.15,3.13 L 5.2,56.96 c 3.98,2.51 8.06,4.82 12.28,6.86 L -0.98,0.65 Z m -3.03,49.6 c 1.56,1.37 3.16,2.7 4.86,3.88 L -6.04,1.61 Z M -6.15,3.51 -5.96,48.47 c 0.58,0.54 1.16,1.07 1.75,1.59 z m -0.2,-1.08 -1.91,43.95 c 0.71,0.63 1.4,1.28 2.11,1.92 z M -6.46,-0.81 -17.3,39.71 c 0.19,-0.11 0.39,-0.21 0.58,-0.31 0.37,-0.2 1.17,-0.06 1.56,0.24 L -6.54,2.47 -6.4,-0.5 c -0.03,-0.1 -0.04,-0.2 -0.06,-0.31 m -13.9,42.6 c 0.79,-0.81 1.82,-1.42 2.85,-1.97 L -7.27,1.58 Z m 11.74,4.26 c 0.06,0.05 0.12,0.11 0.18,0.16 L -6.58,3.42 -15,39.72 -15.08,39.7 c 2.19,2.07 4.22,4.33 6.46,6.35 m 9.98,8.43 c 0.58,0.39 1.17,0.77 1.75,1.15 L -5.43,4.85 1.05,54.26 c 0.1,0.07 0.2,0.15 0.31,0.22 M 4.98,56.82 -4.99,6.29 3.33,55.77 c 0.55,0.36 1.09,0.71 1.65,1.05 M 20.82,65.37 -0.14,2.84 17.71,63.93 c 1.03,0.49 2.07,0.97 3.11,1.44 M 23.91,66.66 0.34,3.2 -0.02,2.51 c -0.01,0.01 -0.02,0.02 -0.03,0.04 l 21.1,62.92 c 0.95,0.41 1.9,0.81 2.86,1.19 m 5.54,2.01 c 2.18,0.7 4.36,1.38 6.58,1.96 L 1.02,4.48 24.15,66.75 c 1.74,0.7 3.51,1.33 5.3,1.92 M 39.66,71.46 2.46,6.8 36.28,70.69 c 1.12,0.29 2.25,0.55 3.38,0.77 M 42.89,71.99 0.82,3.59 39.91,71.52 c 0.99,0.18 1.98,0.35 2.98,0.47 m 3.24,0.28 c 0.73,0.03 1.3,0.08 1.58,-0.85 0.58,-1.97 1.28,-3.9 1.94,-5.83 L 49.58,65.64 0.16,2.14 43.13,72.02 c 0.99,0.12 1.99,0.21 3,0.25 m 3.91,-7.26 c 0.64,-0.49 1.3,-0.98 1.95,-1.47 L 1.74,3.88 49.69,65.5 c 0.08,-0.19 0.2,-0.38 0.35,-0.49 m 4.9,7.52 C 51.74,76.31 48.4,80.02 44.77,83.38 39.93,87.85 33.94,89.87 27.38,90.03 18.55,90.25 10.14,88.56 2.3,84.28 -3.06,81.37 -7.94,77.85 -11.89,73.22 c -2.19,-2.57 -4.13,-5.37 -5.91,-8.23 -3.7,-5.95 -5.87,-12.34 -4.41,-19.46 0.26,-1.29 0.85,-2.67 1.72,-3.61 l -0.08,-0.03 14.04,-43.18 c -0.17,-1.34 -0.18,-3.03 0.37,-3.89 0.01,-0.02 0.02,-0.03 0.04,-0.05 -1.29,-0.12 -3.08,-0.13 -4.19,-0.26 -1.11,-0.13 -2.29,-0.46 -2.83,0.5 -0.36,0.63 -1.18,0.9 -1.77,0.48 -0.48,-0.35 -0.54,-0.9 -0.39,-1.9 0.21,-1.39 1.05,-2.03 2.4,-1.8 0.53,0.09 1.06,0.21 1.59,0.32 1.72,0.36 2.68,-0.51 2.71,-2.32 0,-0.59 0.21,-1.27 0.55,-1.75 1.96,-2.7 6.08,-2.56 8.47,0.32 1.15,1.38 1.37,3.32 0.54,4.91 -0.24,0.48 -0.45,1.01 -0.53,1.52 1.06,0.23 1.92,1.1 2.06,2.23 0.19,1.45 -0.82,2.77 -2.26,2.95 -0.01,0 -0.01,0 -0.02,0.01 l 54.47,61.53 -0.07,0.05 c 0.04,0.02 0.2,0.07 0.28,0.18 2.45,3.78 3.29,6.97 0.05,10.79" /></g><g
           transform="translate(539.9971,813.9004)"
           id="g194"><path
             id="path196"
             style="fill:#ffd9b0;fill-opacity:1;fill-rule:nonzero;stroke:none"
             d="m 0,0 c -62.077,0 -112.58,-50.503 -112.58,-112.58 v -132.5 c 0,-16.004 3.284,-31.449 9.762,-45.907 3.614,-8.093 8.209,-15.771 13.656,-22.825 21.509,-27.867 54.007,-43.848 89.162,-43.848 35.566,0 68.297,16.281 89.797,44.67 1.259,1.65 2.534,3.439 3.796,5.322 12.422,18.541 18.987,40.184 18.987,62.588 v 132.5 c 0,30.073 -11.712,58.347 -32.977,79.613 C 58.343,-11.708 30.072,0 0,0 m 0,-362.66 c -36.717,0 -70.657,16.69 -93.119,45.793 -5.69,7.366 -10.489,15.387 -14.264,23.838 -6.766,15.102 -10.197,31.236 -10.197,47.949 v 132.5 C -117.58,-47.746 -64.834,5 0,5 31.408,5 60.934,-7.228 83.138,-29.432 c 22.211,-22.21 34.442,-51.739 34.442,-83.148 v -132.5 c 0,-23.399 -6.858,-46.004 -19.833,-65.371 -1.319,-1.968 -2.654,-3.84 -3.969,-5.565 C 71.329,-345.656 37.146,-362.66 0,-362.66" /></g><g
           transform="translate(561.2463,613.0178)"
           id="g198"><path
             id="path200"
             style="fill:#ffd9b0;fill-opacity:1;fill-rule:nonzero;stroke:none"
             d="m 0,0 -46.919,21.685 c 0.92,2.479 1.46,5.049 1.609,7.718 0,0.001 0,0.002 0.001,0.003 h 40.416 c 0.844,0 1.527,0.706 1.527,1.578 0,0.871 -0.683,1.578 -1.527,1.578 H -45.31 v 0.001 c -0.12,2.16 -0.5,4.28 -1.139,6.33 -0.001,10e-4 -0.001,0.003 -0.002,0.004 l 26.966,10.641 c 0.787,0.31 1.182,1.222 0.881,2.037 -0.3,0.813 -1.182,1.222 -1.972,0.91 l -26.965,-10.64 c -1.039,2.419 -2.429,4.638 -4.148,6.627 l 26.757,27.657 c 0.596,0.616 0.596,1.616 0,2.231 -0.597,0.617 -1.565,0.617 -2.16,0 L -53.849,50.702 c 0,0 0,0.001 -0.001,0.001 -1.568,1.448 -3.287,2.668 -5.135,3.647 l 12.665,29.26 c 0.344,0.795 -10e-4,1.729 -0.771,2.085 -0.766,0.354 -1.672,-10e-4 -2.018,-0.796 L -61.773,55.64 c -0.002,10e-4 -0.004,0.002 -0.007,0.003 -2.39,0.95 -4.89,1.5 -7.46,1.65 -0.001,0 -0.003,0 -0.004,0 v 63.178 c 0,0.872 -0.684,1.578 -1.527,1.578 -0.844,0 -1.528,-0.706 -1.528,-1.578 V 57.293 c 0,0 0,0 -10e-4,0 -2.099,-0.12 -4.149,-0.51 -6.129,-1.17 l -29.464,79.717 c -0.301,0.814 -1.182,1.22 -1.972,0.911 -0.787,-0.311 -1.182,-1.223 -0.881,-2.037 l 29.461,-79.709 c -0.001,-0.001 -0.003,-0.002 -0.005,-0.002 -2.348,-1.09 -4.487,-2.529 -6.407,-4.298 l -43.664,45.118 c -0.596,0.617 -1.562,0.617 -2.159,0 -0.596,-0.616 -0.596,-1.615 0,-2.231 L -89.852,48.47 c -1.408,-1.619 -2.587,-3.397 -3.546,-5.304 l -15.298,7.07 c -0.769,0.353 -1.672,-10e-4 -2.018,-0.797 -0.344,-0.795 0.001,-1.729 0.771,-2.085 l 15.295,-7.068 c -0.001,-0.001 -0.001,-0.002 -0.002,-0.003 -0.91,-2.48 -1.44,-5.06 -1.59,-7.72 v -0.001 h -39.704 c -0.843,0 -1.527,-0.707 -1.527,-1.578 0,-0.872 0.684,-1.578 1.527,-1.578 h 39.704 c 0,-10e-4 0,-0.002 0,-0.003 0.12,-2.16 0.5,-4.28 1.14,-6.33 l -41.23,-16.27 v -3.38 l 42.31,16.7 c 1.051,-2.42 2.45,-4.64 4.17,-6.63 l -46.48,-48.02 v -4.46 l 48.64,50.25 c 1.56,-1.45 3.28,-2.67 5.13,-3.65 l -3.028,-6.995 c -0.344,-0.795 10e-4,-1.729 0.771,-2.085 0.202,-0.093 0.414,-0.138 0.623,-0.138 0.584,0 1.141,0.348 1.395,0.935 l 3.026,6.99 c 2.398,-0.938 4.906,-1.497 7.473,-1.647 10e-4,0 10e-4,0 10e-4,0 v -26.51 c 0,-0.872 0.684,-1.578 1.528,-1.578 0.843,0 1.527,0.706 1.527,1.578 V 4.672 c 0.001,0.001 0.003,0 0.004,0.001 2.08,0.13 4.13,0.52 6.12,1.17 0.002,0 0.004,0.001 0.006,0.001 l 16.636,-45.018 c 0.232,-0.629 0.812,-1.015 1.426,-1.015 0.182,0 0.366,0.032 0.545,0.103 0.788,0.311 1.183,1.223 0.882,2.037 L -60.259,6.963 c 2.34,1.09 4.48,2.53 6.409,4.3 0.001,0 0.002,10e-4 0.002,0.002 l 22.857,-23.626 c 0.299,-0.308 0.689,-0.462 1.08,-0.462 0.391,0 0.782,0.154 1.08,0.462 0.596,0.616 0.596,1.615 0,2.232 l -22.857,23.624 c 1.399,1.619 2.578,3.398 3.528,5.306 L -1.247,-2.882 c 0.203,-0.093 0.414,-0.138 0.623,-0.138 0.584,0 1.141,0.349 1.395,0.935 C 1.115,-1.29 0.77,-0.356 0,0" /></g></g></g></g></svg>